<svg width="1280" height="240" viewBox="0 0 1280 240" fill="none" xmlns="http://www.w3.org/2000/svg">
  <rect width="1280" height="240" rx="24" fill="#0D1117"/>
  <rect x="0.5" y="0.5" width="1279" height="239" rx="23.5" stroke="#30363D"/>

  <g opacity="0.45">
    <path d="M820 0V240" stroke="#161B22"/>
    <path d="M900 0V240" stroke="#161B22"/>
    <path d="M980 0V240" stroke="#161B22"/>
    <path d="M1060 0V240" stroke="#161B22"/>
    <path d="M1140 0V240" stroke="#161B22"/>
    <path d="M1220 0V240" stroke="#161B22"/>
  </g>

  <g opacity="0.42">
    <path d="M820 48H1232" stroke="#161B22"/>
    <path d="M820 96H1232" stroke="#161B22"/>
    <path d="M820 144H1232" stroke="#161B22"/>
    <path d="M820 192H1232" stroke="#161B22"/>
  </g>

  <circle cx="90" cy="42" r="5" fill="#F85149"/>
  <circle cx="112" cy="42" r="5" fill="#D29922"/>
  <circle cx="134" cy="42" r="5" fill="#3FB950"/>

  <rect x="88" y="58" width="178" height="28" rx="14" fill="#161B22" stroke="#30363D"/>
  <text x="177" y="77" text-anchor="middle" fill="#58A6FF" font-size="13" font-family="Arial, Helvetica, sans-serif">github.com/anmol-228</text>

  <path d="M88 104H236" stroke="#58A6FF" stroke-width="3" stroke-linecap="round"/>

  <text x="88" y="148" fill="#E6EDF3" font-size="48" font-family="Georgia, Times New Roman, serif" font-style="italic">Anmol Trivedi</text>
  <text x="88" y="184" fill="#C9D1D9" font-size="22" font-family="Arial, Helvetica, sans-serif">Computer Science undergraduate building full-stack and ML-backed systems</text>
  <text x="88" y="214" fill="#8B949E" font-size="17" font-family="Arial, Helvetica, sans-serif">Java | Python | Spring Boot | React | MySQL | scikit-learn</text>

  <rect x="944" y="62" width="252" height="34" rx="17" fill="#161B22" stroke="#30363D"/>
  <text x="1070" y="84" text-anchor="middle" fill="#3FB950" font-size="15" font-family="Arial, Helvetica, sans-serif">RentAFit | ML workflows</text>

  <rect x="922" y="112" width="274" height="34" rx="17" fill="#161B22" stroke="#30363D"/>
  <text x="1059" y="134" text-anchor="middle" fill="#58A6FF" font-size="15" font-family="Arial, Helvetica, sans-serif">Sahayatri | routes and tracking</text>

  <rect x="916" y="162" width="280" height="34" rx="17" fill="#161B22" stroke="#30363D"/>
  <text x="1056" y="184" text-anchor="middle" fill="#A5D6FF" font-size="15" font-family="Arial, Helvetica, sans-serif">Backend | full stack | practical ML</text>
</svg>
